<mxfile host="Electron" modified="2024-04-21T21:44:28.255Z" agent="Mozilla/5.0 (Windows NT 10.0; Win64; x64) AppleWebKit/537.36 (KHTML, like Gecko) draw.io/24.2.5 Chrome/120.0.6099.109 Electron/28.1.0 Safari/537.36" etag="Z1UgfjwdaEZfpqnOknI7" version="24.2.5" type="device">
  <diagram id="C5RBs43oDa-KdzZeNtuy" name="Page-1">
    <mxGraphModel dx="1120" dy="532" grid="1" gridSize="10" guides="1" tooltips="1" connect="1" arrows="1" fold="1" page="1" pageScale="1" pageWidth="827" pageHeight="1169" math="0" shadow="0">
      <root>
        <mxCell id="WIyWlLk6GJQsqaUBKTNV-0" />
        <mxCell id="WIyWlLk6GJQsqaUBKTNV-1" parent="WIyWlLk6GJQsqaUBKTNV-0" />
        <mxCell id="KqlvTCwzOBGVQyS6OM5C-31" style="edgeStyle=orthogonalEdgeStyle;rounded=0;orthogonalLoop=1;jettySize=auto;html=1;exitX=0.5;exitY=1;exitDx=0;exitDy=0;" edge="1" parent="WIyWlLk6GJQsqaUBKTNV-1" source="KqlvTCwzOBGVQyS6OM5C-0" target="KqlvTCwzOBGVQyS6OM5C-1">
          <mxGeometry relative="1" as="geometry" />
        </mxCell>
        <mxCell id="KqlvTCwzOBGVQyS6OM5C-0" value="Take age from the user" style="rounded=0;whiteSpace=wrap;html=1;" vertex="1" parent="WIyWlLk6GJQsqaUBKTNV-1">
          <mxGeometry x="340" y="40" width="120" height="60" as="geometry" />
        </mxCell>
        <mxCell id="KqlvTCwzOBGVQyS6OM5C-5" value="" style="edgeStyle=orthogonalEdgeStyle;rounded=0;orthogonalLoop=1;jettySize=auto;html=1;" edge="1" parent="WIyWlLk6GJQsqaUBKTNV-1" source="KqlvTCwzOBGVQyS6OM5C-1" target="KqlvTCwzOBGVQyS6OM5C-4">
          <mxGeometry relative="1" as="geometry" />
        </mxCell>
        <mxCell id="KqlvTCwzOBGVQyS6OM5C-7" value="YES" style="edgeLabel;html=1;align=center;verticalAlign=middle;resizable=0;points=[];" vertex="1" connectable="0" parent="KqlvTCwzOBGVQyS6OM5C-5">
          <mxGeometry x="-0.3667" relative="1" as="geometry">
            <mxPoint as="offset" />
          </mxGeometry>
        </mxCell>
        <mxCell id="KqlvTCwzOBGVQyS6OM5C-9" value="" style="edgeStyle=orthogonalEdgeStyle;rounded=0;orthogonalLoop=1;jettySize=auto;html=1;" edge="1" parent="WIyWlLk6GJQsqaUBKTNV-1" source="KqlvTCwzOBGVQyS6OM5C-1" target="KqlvTCwzOBGVQyS6OM5C-8">
          <mxGeometry relative="1" as="geometry" />
        </mxCell>
        <mxCell id="KqlvTCwzOBGVQyS6OM5C-10" value="NO" style="edgeLabel;html=1;align=center;verticalAlign=middle;resizable=0;points=[];" vertex="1" connectable="0" parent="KqlvTCwzOBGVQyS6OM5C-9">
          <mxGeometry x="-0.3" relative="1" as="geometry">
            <mxPoint as="offset" />
          </mxGeometry>
        </mxCell>
        <mxCell id="KqlvTCwzOBGVQyS6OM5C-1" value="Age is&lt;div&gt;literal&lt;/div&gt;" style="rhombus;whiteSpace=wrap;html=1;rounded=0;" vertex="1" parent="WIyWlLk6GJQsqaUBKTNV-1">
          <mxGeometry x="360" y="160" width="80" height="80" as="geometry" />
        </mxCell>
        <mxCell id="KqlvTCwzOBGVQyS6OM5C-6" style="edgeStyle=orthogonalEdgeStyle;rounded=0;orthogonalLoop=1;jettySize=auto;html=1;exitX=1;exitY=0.5;exitDx=0;exitDy=0;entryX=1;entryY=0.5;entryDx=0;entryDy=0;" edge="1" parent="WIyWlLk6GJQsqaUBKTNV-1" source="KqlvTCwzOBGVQyS6OM5C-4" target="KqlvTCwzOBGVQyS6OM5C-0">
          <mxGeometry relative="1" as="geometry" />
        </mxCell>
        <mxCell id="KqlvTCwzOBGVQyS6OM5C-4" value="Ask user for a numeric input" style="whiteSpace=wrap;html=1;rounded=0;" vertex="1" parent="WIyWlLk6GJQsqaUBKTNV-1">
          <mxGeometry x="500" y="170" width="120" height="60" as="geometry" />
        </mxCell>
        <mxCell id="KqlvTCwzOBGVQyS6OM5C-15" value="" style="edgeStyle=orthogonalEdgeStyle;rounded=0;orthogonalLoop=1;jettySize=auto;html=1;" edge="1" parent="WIyWlLk6GJQsqaUBKTNV-1" source="KqlvTCwzOBGVQyS6OM5C-8" target="KqlvTCwzOBGVQyS6OM5C-14">
          <mxGeometry relative="1" as="geometry" />
        </mxCell>
        <mxCell id="KqlvTCwzOBGVQyS6OM5C-18" value="YES" style="edgeLabel;html=1;align=center;verticalAlign=middle;resizable=0;points=[];" vertex="1" connectable="0" parent="KqlvTCwzOBGVQyS6OM5C-15">
          <mxGeometry x="-0.5273" y="-3" relative="1" as="geometry">
            <mxPoint as="offset" />
          </mxGeometry>
        </mxCell>
        <mxCell id="KqlvTCwzOBGVQyS6OM5C-33" value="" style="edgeStyle=orthogonalEdgeStyle;rounded=0;orthogonalLoop=1;jettySize=auto;html=1;" edge="1" parent="WIyWlLk6GJQsqaUBKTNV-1" source="KqlvTCwzOBGVQyS6OM5C-8" target="KqlvTCwzOBGVQyS6OM5C-32">
          <mxGeometry relative="1" as="geometry" />
        </mxCell>
        <mxCell id="KqlvTCwzOBGVQyS6OM5C-8" value="Age=&#39;\n&#39;?" style="rhombus;whiteSpace=wrap;html=1;rounded=0;" vertex="1" parent="WIyWlLk6GJQsqaUBKTNV-1">
          <mxGeometry x="360" y="290" width="80" height="80" as="geometry" />
        </mxCell>
        <mxCell id="KqlvTCwzOBGVQyS6OM5C-14" value="Print total charge to video" style="whiteSpace=wrap;html=1;rounded=0;" vertex="1" parent="WIyWlLk6GJQsqaUBKTNV-1">
          <mxGeometry x="100" y="1080" width="120" height="60" as="geometry" />
        </mxCell>
        <mxCell id="KqlvTCwzOBGVQyS6OM5C-21" value="" style="edgeStyle=orthogonalEdgeStyle;rounded=0;orthogonalLoop=1;jettySize=auto;html=1;" edge="1" parent="WIyWlLk6GJQsqaUBKTNV-1" source="KqlvTCwzOBGVQyS6OM5C-16" target="KqlvTCwzOBGVQyS6OM5C-20">
          <mxGeometry relative="1" as="geometry" />
        </mxCell>
        <mxCell id="KqlvTCwzOBGVQyS6OM5C-22" value="YES" style="edgeLabel;html=1;align=center;verticalAlign=middle;resizable=0;points=[];" vertex="1" connectable="0" parent="KqlvTCwzOBGVQyS6OM5C-21">
          <mxGeometry x="-0.3333" y="1" relative="1" as="geometry">
            <mxPoint as="offset" />
          </mxGeometry>
        </mxCell>
        <mxCell id="KqlvTCwzOBGVQyS6OM5C-25" value="" style="edgeStyle=orthogonalEdgeStyle;rounded=0;orthogonalLoop=1;jettySize=auto;html=1;" edge="1" parent="WIyWlLk6GJQsqaUBKTNV-1" source="KqlvTCwzOBGVQyS6OM5C-16" target="KqlvTCwzOBGVQyS6OM5C-24">
          <mxGeometry relative="1" as="geometry" />
        </mxCell>
        <mxCell id="KqlvTCwzOBGVQyS6OM5C-26" value="NO" style="edgeLabel;html=1;align=center;verticalAlign=middle;resizable=0;points=[];" vertex="1" connectable="0" parent="KqlvTCwzOBGVQyS6OM5C-25">
          <mxGeometry x="-0.075" y="-1" relative="1" as="geometry">
            <mxPoint as="offset" />
          </mxGeometry>
        </mxCell>
        <mxCell id="KqlvTCwzOBGVQyS6OM5C-16" value="Age&amp;lt;=2?" style="rhombus;whiteSpace=wrap;html=1;rounded=0;" vertex="1" parent="WIyWlLk6GJQsqaUBKTNV-1">
          <mxGeometry x="360" y="560" width="80" height="80" as="geometry" />
        </mxCell>
        <mxCell id="KqlvTCwzOBGVQyS6OM5C-23" style="edgeStyle=orthogonalEdgeStyle;rounded=0;orthogonalLoop=1;jettySize=auto;html=1;exitX=1;exitY=0.5;exitDx=0;exitDy=0;entryX=1;entryY=0.5;entryDx=0;entryDy=0;" edge="1" parent="WIyWlLk6GJQsqaUBKTNV-1" source="KqlvTCwzOBGVQyS6OM5C-20" target="KqlvTCwzOBGVQyS6OM5C-0">
          <mxGeometry relative="1" as="geometry" />
        </mxCell>
        <mxCell id="KqlvTCwzOBGVQyS6OM5C-20" value="Sum 0 to total charge" style="whiteSpace=wrap;html=1;rounded=0;" vertex="1" parent="WIyWlLk6GJQsqaUBKTNV-1">
          <mxGeometry x="500" y="570" width="120" height="60" as="geometry" />
        </mxCell>
        <mxCell id="KqlvTCwzOBGVQyS6OM5C-28" value="" style="edgeStyle=orthogonalEdgeStyle;rounded=0;orthogonalLoop=1;jettySize=auto;html=1;" edge="1" parent="WIyWlLk6GJQsqaUBKTNV-1" source="KqlvTCwzOBGVQyS6OM5C-24" target="KqlvTCwzOBGVQyS6OM5C-27">
          <mxGeometry relative="1" as="geometry" />
        </mxCell>
        <mxCell id="KqlvTCwzOBGVQyS6OM5C-29" value="YES" style="edgeLabel;html=1;align=center;verticalAlign=middle;resizable=0;points=[];" vertex="1" connectable="0" parent="KqlvTCwzOBGVQyS6OM5C-28">
          <mxGeometry x="-0.2" relative="1" as="geometry">
            <mxPoint as="offset" />
          </mxGeometry>
        </mxCell>
        <mxCell id="KqlvTCwzOBGVQyS6OM5C-40" value="" style="edgeStyle=orthogonalEdgeStyle;rounded=0;orthogonalLoop=1;jettySize=auto;html=1;" edge="1" parent="WIyWlLk6GJQsqaUBKTNV-1" source="KqlvTCwzOBGVQyS6OM5C-24" target="KqlvTCwzOBGVQyS6OM5C-39">
          <mxGeometry relative="1" as="geometry" />
        </mxCell>
        <mxCell id="KqlvTCwzOBGVQyS6OM5C-24" value="3&amp;lt;=age&amp;lt;=12?" style="rhombus;whiteSpace=wrap;html=1;rounded=0;" vertex="1" parent="WIyWlLk6GJQsqaUBKTNV-1">
          <mxGeometry x="350" y="720" width="100" height="80" as="geometry" />
        </mxCell>
        <mxCell id="KqlvTCwzOBGVQyS6OM5C-30" style="edgeStyle=orthogonalEdgeStyle;rounded=0;orthogonalLoop=1;jettySize=auto;html=1;exitX=1;exitY=0.5;exitDx=0;exitDy=0;entryX=1;entryY=0.5;entryDx=0;entryDy=0;" edge="1" parent="WIyWlLk6GJQsqaUBKTNV-1" source="KqlvTCwzOBGVQyS6OM5C-27" target="KqlvTCwzOBGVQyS6OM5C-0">
          <mxGeometry relative="1" as="geometry" />
        </mxCell>
        <mxCell id="KqlvTCwzOBGVQyS6OM5C-27" value="Sum 14.0 to total charge" style="whiteSpace=wrap;html=1;rounded=0;" vertex="1" parent="WIyWlLk6GJQsqaUBKTNV-1">
          <mxGeometry x="500" y="730" width="120" height="60" as="geometry" />
        </mxCell>
        <mxCell id="KqlvTCwzOBGVQyS6OM5C-34" style="edgeStyle=orthogonalEdgeStyle;rounded=0;orthogonalLoop=1;jettySize=auto;html=1;exitX=0.5;exitY=1;exitDx=0;exitDy=0;entryX=0.5;entryY=0;entryDx=0;entryDy=0;" edge="1" parent="WIyWlLk6GJQsqaUBKTNV-1" source="KqlvTCwzOBGVQyS6OM5C-32" target="KqlvTCwzOBGVQyS6OM5C-16">
          <mxGeometry relative="1" as="geometry" />
        </mxCell>
        <mxCell id="KqlvTCwzOBGVQyS6OM5C-35" value="NO" style="edgeLabel;html=1;align=center;verticalAlign=middle;resizable=0;points=[];" vertex="1" connectable="0" parent="KqlvTCwzOBGVQyS6OM5C-34">
          <mxGeometry relative="1" as="geometry">
            <mxPoint as="offset" />
          </mxGeometry>
        </mxCell>
        <mxCell id="KqlvTCwzOBGVQyS6OM5C-37" value="" style="edgeStyle=orthogonalEdgeStyle;rounded=0;orthogonalLoop=1;jettySize=auto;html=1;" edge="1" parent="WIyWlLk6GJQsqaUBKTNV-1" source="KqlvTCwzOBGVQyS6OM5C-32" target="KqlvTCwzOBGVQyS6OM5C-36">
          <mxGeometry relative="1" as="geometry" />
        </mxCell>
        <mxCell id="KqlvTCwzOBGVQyS6OM5C-32" value="Age&amp;lt;0?" style="rhombus;whiteSpace=wrap;html=1;rounded=0;" vertex="1" parent="WIyWlLk6GJQsqaUBKTNV-1">
          <mxGeometry x="360" y="410" width="80" height="80" as="geometry" />
        </mxCell>
        <mxCell id="KqlvTCwzOBGVQyS6OM5C-38" style="edgeStyle=orthogonalEdgeStyle;rounded=0;orthogonalLoop=1;jettySize=auto;html=1;exitX=1;exitY=0.5;exitDx=0;exitDy=0;entryX=1;entryY=0.5;entryDx=0;entryDy=0;" edge="1" parent="WIyWlLk6GJQsqaUBKTNV-1" source="KqlvTCwzOBGVQyS6OM5C-36" target="KqlvTCwzOBGVQyS6OM5C-0">
          <mxGeometry relative="1" as="geometry">
            <Array as="points">
              <mxPoint x="640" y="450" />
              <mxPoint x="640" y="70" />
            </Array>
          </mxGeometry>
        </mxCell>
        <mxCell id="KqlvTCwzOBGVQyS6OM5C-36" value="Ask user fot a positive input" style="whiteSpace=wrap;html=1;rounded=0;" vertex="1" parent="WIyWlLk6GJQsqaUBKTNV-1">
          <mxGeometry x="490" y="420" width="120" height="60" as="geometry" />
        </mxCell>
        <mxCell id="KqlvTCwzOBGVQyS6OM5C-42" value="" style="edgeStyle=orthogonalEdgeStyle;rounded=0;orthogonalLoop=1;jettySize=auto;html=1;" edge="1" parent="WIyWlLk6GJQsqaUBKTNV-1" source="KqlvTCwzOBGVQyS6OM5C-39" target="KqlvTCwzOBGVQyS6OM5C-41">
          <mxGeometry relative="1" as="geometry" />
        </mxCell>
        <mxCell id="KqlvTCwzOBGVQyS6OM5C-43" value="YES" style="edgeLabel;html=1;align=center;verticalAlign=middle;resizable=0;points=[];" vertex="1" connectable="0" parent="KqlvTCwzOBGVQyS6OM5C-42">
          <mxGeometry y="2" relative="1" as="geometry">
            <mxPoint as="offset" />
          </mxGeometry>
        </mxCell>
        <mxCell id="KqlvTCwzOBGVQyS6OM5C-46" value="" style="edgeStyle=orthogonalEdgeStyle;rounded=0;orthogonalLoop=1;jettySize=auto;html=1;" edge="1" parent="WIyWlLk6GJQsqaUBKTNV-1" source="KqlvTCwzOBGVQyS6OM5C-39" target="KqlvTCwzOBGVQyS6OM5C-45">
          <mxGeometry relative="1" as="geometry" />
        </mxCell>
        <mxCell id="KqlvTCwzOBGVQyS6OM5C-39" value="Age&amp;gt;=65?" style="rhombus;whiteSpace=wrap;html=1;rounded=0;" vertex="1" parent="WIyWlLk6GJQsqaUBKTNV-1">
          <mxGeometry x="350" y="850" width="100" height="80" as="geometry" />
        </mxCell>
        <mxCell id="KqlvTCwzOBGVQyS6OM5C-44" style="edgeStyle=orthogonalEdgeStyle;rounded=0;orthogonalLoop=1;jettySize=auto;html=1;exitX=1;exitY=0.5;exitDx=0;exitDy=0;entryX=1;entryY=0.5;entryDx=0;entryDy=0;" edge="1" parent="WIyWlLk6GJQsqaUBKTNV-1" source="KqlvTCwzOBGVQyS6OM5C-41" target="KqlvTCwzOBGVQyS6OM5C-0">
          <mxGeometry relative="1" as="geometry">
            <Array as="points">
              <mxPoint x="640" y="890" />
              <mxPoint x="640" y="70" />
            </Array>
          </mxGeometry>
        </mxCell>
        <mxCell id="KqlvTCwzOBGVQyS6OM5C-41" value="Sum 18.0 to total charge" style="whiteSpace=wrap;html=1;rounded=0;" vertex="1" parent="WIyWlLk6GJQsqaUBKTNV-1">
          <mxGeometry x="500" y="860" width="120" height="60" as="geometry" />
        </mxCell>
        <mxCell id="KqlvTCwzOBGVQyS6OM5C-47" style="edgeStyle=orthogonalEdgeStyle;rounded=0;orthogonalLoop=1;jettySize=auto;html=1;exitX=1;exitY=0.5;exitDx=0;exitDy=0;entryX=1;entryY=0.5;entryDx=0;entryDy=0;" edge="1" parent="WIyWlLk6GJQsqaUBKTNV-1" source="KqlvTCwzOBGVQyS6OM5C-45" target="KqlvTCwzOBGVQyS6OM5C-0">
          <mxGeometry relative="1" as="geometry">
            <Array as="points">
              <mxPoint x="640" y="1030" />
              <mxPoint x="640" y="70" />
            </Array>
          </mxGeometry>
        </mxCell>
        <mxCell id="KqlvTCwzOBGVQyS6OM5C-48" style="edgeStyle=orthogonalEdgeStyle;rounded=0;orthogonalLoop=1;jettySize=auto;html=1;exitX=0.5;exitY=1;exitDx=0;exitDy=0;entryX=1;entryY=0.5;entryDx=0;entryDy=0;" edge="1" parent="WIyWlLk6GJQsqaUBKTNV-1" source="KqlvTCwzOBGVQyS6OM5C-45" target="KqlvTCwzOBGVQyS6OM5C-14">
          <mxGeometry relative="1" as="geometry" />
        </mxCell>
        <mxCell id="KqlvTCwzOBGVQyS6OM5C-45" value="Sum 23 to total charge" style="whiteSpace=wrap;html=1;rounded=0;" vertex="1" parent="WIyWlLk6GJQsqaUBKTNV-1">
          <mxGeometry x="340" y="1000" width="120" height="60" as="geometry" />
        </mxCell>
      </root>
    </mxGraphModel>
  </diagram>
</mxfile>
